ply
format ascii 1.0
comment generated by tinyply 2.2
element vertex 160
property float x
property float y
property float z
element face 240
property list uchar uint vertex_indices
end_header
-1.05 -1.05 1.05 
-0.95 -1.05 1.05 
-0.95 -0.95 1.05 
-1.05 -0.95 1.05 
-1.05 -1.05 0.95 
-0.95 -1.05 0.95 
-0.95 -0.95 0.95 
-1.05 -0.95 0.95 
0.95 -1.05 1.05 
1.05 -1.05 1.05 
1.05 -0.95 1.05 
0.95 -0.95 1.05 
0.95 -1.05 0.95 
1.05 -1.05 0.95 
1.05 -0.95 0.95 
0.95 -0.95 0.95 
0.95 0.95 1.05 
1.05 0.95 1.05 
1.05 1.05 1.05 
0.95 1.05 1.05 
0.95 0.95 0.95 
1.05 0.95 0.95 
1.05 1.05 0.95 
0.95 1.05 0.95 
-1.05 0.95 1.05 
-0.95 0.95 1.05 
-0.95 1.05 1.05 
-1.05 1.05 1.05 
-1.05 0.95 0.95 
-0.95 0.95 0.95 
-0.95 1.05 0.95 
-1.05 1.05 0.95 
-1.05 -1.05 -0.95 
-0.95 -1.05 -0.95 
-0.95 -0.95 -0.95 
-1.05 -0.95 -0.95 
-1.05 -1.05 -1.05 
-0.95 -1.05 -1.05 
-0.95 -0.95 -1.05 
-1.05 -0.95 -1.05 
0.95 -1.05 -0.95 
1.05 -1.05 -0.95 
1.05 -0.95 -0.95 
0.95 -0.95 -0.95 
0.95 -1.05 -1.05 
1.05 -1.05 -1.05 
1.05 -0.95 -1.05 
0.95 -0.95 -1.05 
0.95 0.95 -0.95 
1.05 0.95 -0.95 
1.05 1.05 -0.95 
0.95 1.05 -0.95 
0.95 0.95 -1.05 
1.05 0.95 -1.05 
1.05 1.05 -1.05 
0.95 1.05 -1.05 
-1.05 0.95 -0.95 
-0.95 0.95 -0.95 
-0.95 1.05 -0.95 
-1.05 1.05 -0.95 
-1.05 0.95 -1.05 
-0.95 0.95 -1.05 
-0.95 1.05 -1.05 
-1.05 1.05 -1.05 
-1 -1.05 1.05 
1 -1.05 1.05 
1 -0.95 1.05 
-1 -0.95 1.05 
-1 -1.05 0.95 
1 -1.05 0.95 
1 -0.95 0.95 
-1 -0.95 0.95 
-1 0.95 1.05 
1 0.95 1.05 
1 1.05 1.05 
-1 1.05 1.05 
-1 0.95 0.95 
1 0.95 0.95 
1 1.05 0.95 
-1 1.05 0.95 
-1 -1.05 -0.95 
1 -1.05 -0.95 
1 -0.95 -0.95 
-1 -0.95 -0.95 
-1 -1.05 -1.05 
1 -1.05 -1.05 
1 -0.95 -1.05 
-1 -0.95 -1.05 
-1 0.95 -0.95 
1 0.95 -0.95 
1 1.05 -0.95 
-1 1.05 -0.95 
-1 0.95 -1.05 
1 0.95 -1.05 
1 1.05 -1.05 
-1 1.05 -1.05 
-1.05 -1 1.05 
-0.95 -1 1.05 
-0.95 1 1.05 
-1.05 1 1.05 
-1.05 -1 0.95 
-0.95 -1 0.95 
-0.95 1 0.95 
-1.05 1 0.95 
0.95 -1 1.05 
1.05 -1 1.05 
1.05 1 1.05 
0.95 1 1.05 
0.95 -1 0.95 
1.05 -1 0.95 
1.05 1 0.95 
0.95 1 0.95 
-1.05 -1 -0.95 
-0.95 -1 -0.95 
-0.95 1 -0.95 
-1.05 1 -0.95 
-1.05 -1 -1.05 
-0.95 -1 -1.05 
-0.95 1 -1.05 
-1.05 1 -1.05 
0.95 -1 -0.95 
1.05 -1 -0.95 
1.05 1 -0.95 
0.95 1 -0.95 
0.95 -1 -1.05 
1.05 -1 -1.05 
1.05 1 -1.05 
0.95 1 -1.05 
0.95 0.95 1 
1.05 0.95 1 
1.05 1.05 1 
0.95 1.05 1 
0.95 0.95 -1 
1.05 0.95 -1 
1.05 1.05 -1 
0.95 1.05 -1 
-1.05 0.95 1 
-0.95 0.95 1 
-0.95 1.05 1 
-1.05 1.05 1 
-1.05 0.95 -1 
-0.95 0.95 -1 
-0.95 1.05 -1 
-1.05 1.05 -1 
0.95 -1.05 1 
1.05 -1.05 1 
1.05 -0.95 1 
0.95 -0.95 1 
0.95 -1.05 -1 
1.05 -1.05 -1 
1.05 -0.95 -1 
0.95 -0.95 -1 
-1.05 -1.05 1 
-0.95 -1.05 1 
-0.95 -0.95 1 
-1.05 -0.95 1 
-1.05 -1.05 -1 
-0.95 -1.05 -1 
-0.95 -0.95 -1 
-1.05 -0.95 -1 
3 0 1 2 
3 2 3 0 
3 1 5 6 
3 6 2 1 
3 7 6 5 
3 5 4 7 
3 4 0 3 
3 3 7 4 
3 4 5 1 
3 1 0 4 
3 3 2 6 
3 6 7 3 
3 8 9 10 
3 10 11 8 
3 9 13 14 
3 14 10 9 
3 15 14 13 
3 13 12 15 
3 12 8 11 
3 11 15 12 
3 12 13 9 
3 9 8 12 
3 11 10 14 
3 14 15 11 
3 16 17 18 
3 18 19 16 
3 17 21 22 
3 22 18 17 
3 23 22 21 
3 21 20 23 
3 20 16 19 
3 19 23 20 
3 20 21 17 
3 17 16 20 
3 19 18 22 
3 22 23 19 
3 24 25 26 
3 26 27 24 
3 25 29 30 
3 30 26 25 
3 31 30 29 
3 29 28 31 
3 28 24 27 
3 27 31 28 
3 28 29 25 
3 25 24 28 
3 27 26 30 
3 30 31 27 
3 32 33 34 
3 34 35 32 
3 33 37 38 
3 38 34 33 
3 39 38 37 
3 37 36 39 
3 36 32 35 
3 35 39 36 
3 36 37 33 
3 33 32 36 
3 35 34 38 
3 38 39 35 
3 40 41 42 
3 42 43 40 
3 41 45 46 
3 46 42 41 
3 47 46 45 
3 45 44 47 
3 44 40 43 
3 43 47 44 
3 44 45 41 
3 41 40 44 
3 43 42 46 
3 46 47 43 
3 48 49 50 
3 50 51 48 
3 49 53 54 
3 54 50 49 
3 55 54 53 
3 53 52 55 
3 52 48 51 
3 51 55 52 
3 52 53 49 
3 49 48 52 
3 51 50 54 
3 54 55 51 
3 56 57 58 
3 58 59 56 
3 57 61 62 
3 62 58 57 
3 63 62 61 
3 61 60 63 
3 60 56 59 
3 59 63 60 
3 60 61 57 
3 57 56 60 
3 59 58 62 
3 62 63 59 
3 64 65 66 
3 66 67 64 
3 65 69 70 
3 70 66 65 
3 71 70 69 
3 69 68 71 
3 68 64 67 
3 67 71 68 
3 68 69 65 
3 65 64 68 
3 67 66 70 
3 70 71 67 
3 72 73 74 
3 74 75 72 
3 73 77 78 
3 78 74 73 
3 79 78 77 
3 77 76 79 
3 76 72 75 
3 75 79 76 
3 76 77 73 
3 73 72 76 
3 75 74 78 
3 78 79 75 
3 80 81 82 
3 82 83 80 
3 81 85 86 
3 86 82 81 
3 87 86 85 
3 85 84 87 
3 84 80 83 
3 83 87 84 
3 84 85 81 
3 81 80 84 
3 83 82 86 
3 86 87 83 
3 88 89 90 
3 90 91 88 
3 89 93 94 
3 94 90 89 
3 95 94 93 
3 93 92 95 
3 92 88 91 
3 91 95 92 
3 92 93 89 
3 89 88 92 
3 91 90 94 
3 94 95 91 
3 96 97 98 
3 98 99 96 
3 97 101 102 
3 102 98 97 
3 103 102 101 
3 101 100 103 
3 100 96 99 
3 99 103 100 
3 100 101 97 
3 97 96 100 
3 99 98 102 
3 102 103 99 
3 104 105 106 
3 106 107 104 
3 105 109 110 
3 110 106 105 
3 111 110 109 
3 109 108 111 
3 108 104 107 
3 107 111 108 
3 108 109 105 
3 105 104 108 
3 107 106 110 
3 110 111 107 
3 112 113 114 
3 114 115 112 
3 113 117 118 
3 118 114 113 
3 119 118 117 
3 117 116 119 
3 116 112 115 
3 115 119 116 
3 116 117 113 
3 113 112 116 
3 115 114 118 
3 118 119 115 
3 120 121 122 
3 122 123 120 
3 121 125 126 
3 126 122 121 
3 127 126 125 
3 125 124 127 
3 124 120 123 
3 123 127 124 
3 124 125 121 
3 121 120 124 
3 123 122 126 
3 126 127 123 
3 128 129 130 
3 130 131 128 
3 129 133 134 
3 134 130 129 
3 135 134 133 
3 133 132 135 
3 132 128 131 
3 131 135 132 
3 132 133 129 
3 129 128 132 
3 131 130 134 
3 134 135 131 
3 136 137 138 
3 138 139 136 
3 137 141 142 
3 142 138 137 
3 143 142 141 
3 141 140 143 
3 140 136 139 
3 139 143 140 
3 140 141 137 
3 137 136 140 
3 139 138 142 
3 142 143 139 
3 144 145 146 
3 146 147 144 
3 145 149 150 
3 150 146 145 
3 151 150 149 
3 149 148 151 
3 148 144 147 
3 147 151 148 
3 148 149 145 
3 145 144 148 
3 147 146 150 
3 150 151 147 
3 152 153 154 
3 154 155 152 
3 153 157 158 
3 158 154 153 
3 159 158 157 
3 157 156 159 
3 156 152 155 
3 155 159 156 
3 156 157 153 
3 153 152 156 
3 155 154 158 
3 158 159 155 
